<mxfile host="app.diagrams.net" modified="2023-06-28T22:53:10.155Z" agent="Mozilla/5.0 (Windows NT 10.0; Win64; x64) AppleWebKit/537.36 (KHTML, like Gecko) Chrome/114.0.0.0 Safari/537.36" etag="6ExmBPRR60nySFdnLnyd" version="21.4.0" type="device">
  <diagram name="Página-1" id="AHKYGdOoqL5kdEYp2OWh">
    <mxGraphModel dx="1134" dy="611" grid="1" gridSize="10" guides="1" tooltips="1" connect="1" arrows="1" fold="1" page="1" pageScale="1" pageWidth="827" pageHeight="1169" math="0" shadow="0">
      <root>
        <mxCell id="0" />
        <mxCell id="1" parent="0" />
        <mxCell id="n8w---uKjapahWrcVd5p-21" value="DADOS" style="endArrow=classic;html=1;rounded=0;entryX=0.248;entryY=0.079;entryDx=0;entryDy=0;exitX=0.275;exitY=0.957;exitDx=0;exitDy=0;exitPerimeter=0;entryPerimeter=0;fontSize=10;horizontal=0;" edge="1" parent="1" source="n8w---uKjapahWrcVd5p-3" target="n8w---uKjapahWrcVd5p-19">
          <mxGeometry x="-0.1688" width="50" height="50" relative="1" as="geometry">
            <mxPoint x="330" y="169.36" as="sourcePoint" />
            <mxPoint x="380" y="219.36" as="targetPoint" />
            <mxPoint as="offset" />
          </mxGeometry>
        </mxCell>
        <mxCell id="n8w---uKjapahWrcVd5p-132" value="INSERE INFFORMAÕCOES NO PROCESSO FEEDBACK" style="edgeStyle=orthogonalEdgeStyle;rounded=0;orthogonalLoop=1;jettySize=auto;html=1;exitX=0;exitY=0;exitDx=10;exitDy=90;exitPerimeter=0;entryX=0.014;entryY=0.605;entryDx=0;entryDy=0;entryPerimeter=0;horizontal=0;" edge="1" parent="1" source="n8w---uKjapahWrcVd5p-1" target="n8w---uKjapahWrcVd5p-128">
          <mxGeometry x="0.1747" relative="1" as="geometry">
            <mxPoint as="offset" />
          </mxGeometry>
        </mxCell>
        <mxCell id="n8w---uKjapahWrcVd5p-1" value="Cliente" style="verticalAlign=top;align=left;spacingTop=8;spacingLeft=2;spacingRight=12;shape=cube;size=10;direction=south;fontStyle=4;html=1;whiteSpace=wrap;fillColor=#ffe6cc;strokeColor=#d79b00;fontSize=20;" vertex="1" parent="1">
          <mxGeometry x="200" y="90" width="90" height="50" as="geometry" />
        </mxCell>
        <mxCell id="n8w---uKjapahWrcVd5p-3" value="" style="verticalLabelPosition=bottom;verticalAlign=top;html=1;shape=mxgraph.flowchart.on-page_reference;fillColor=#e1d5e7;strokeColor=#9673a6;" vertex="1" parent="1">
          <mxGeometry x="350" y="80" width="70" height="70" as="geometry" />
        </mxCell>
        <mxCell id="n8w---uKjapahWrcVd5p-7" value="" style="endArrow=none;html=1;rounded=0;entryX=0.957;entryY=0.305;entryDx=0;entryDy=0;entryPerimeter=0;exitX=0.052;exitY=0.303;exitDx=0;exitDy=0;exitPerimeter=0;" edge="1" parent="1" source="n8w---uKjapahWrcVd5p-3" target="n8w---uKjapahWrcVd5p-3">
          <mxGeometry width="50" height="50" relative="1" as="geometry">
            <mxPoint x="350" y="101" as="sourcePoint" />
            <mxPoint x="450" y="150" as="targetPoint" />
          </mxGeometry>
        </mxCell>
        <mxCell id="n8w---uKjapahWrcVd5p-12" value="P1" style="text;html=1;strokeColor=none;fillColor=none;align=center;verticalAlign=middle;whiteSpace=wrap;rounded=0;" vertex="1" parent="1">
          <mxGeometry x="355" y="80" width="60" height="30" as="geometry" />
        </mxCell>
        <mxCell id="n8w---uKjapahWrcVd5p-13" value="CRUD&lt;br&gt;CLIENTE" style="text;html=1;strokeColor=none;fillColor=none;align=center;verticalAlign=middle;whiteSpace=wrap;rounded=0;" vertex="1" parent="1">
          <mxGeometry x="363.75" y="110" width="42.5" height="20" as="geometry" />
        </mxCell>
        <mxCell id="n8w---uKjapahWrcVd5p-14" value="DADOS" style="endArrow=classic;html=1;rounded=0;exitX=0.177;exitY=-0.001;exitDx=0;exitDy=0;exitPerimeter=0;align=center;fontSize=10;entryX=0.043;entryY=0.272;entryDx=0;entryDy=0;entryPerimeter=0;" edge="1" parent="1" source="n8w---uKjapahWrcVd5p-1" target="n8w---uKjapahWrcVd5p-3">
          <mxGeometry width="50" height="50" relative="1" as="geometry">
            <mxPoint x="330" y="130" as="sourcePoint" />
            <mxPoint x="350" y="99" as="targetPoint" />
          </mxGeometry>
        </mxCell>
        <mxCell id="n8w---uKjapahWrcVd5p-15" value="RESPOSTA" style="endArrow=classic;html=1;rounded=0;entryX=0;entryY=0;entryDx=40;entryDy=0;entryPerimeter=0;exitX=0.032;exitY=0.715;exitDx=0;exitDy=0;exitPerimeter=0;fontSize=10;" edge="1" parent="1" source="n8w---uKjapahWrcVd5p-3" target="n8w---uKjapahWrcVd5p-1">
          <mxGeometry x="-0.0019" width="50" height="50" relative="1" as="geometry">
            <mxPoint x="340" y="140" as="sourcePoint" />
            <mxPoint x="410" y="70" as="targetPoint" />
            <Array as="points">
              <mxPoint x="320" y="130" />
            </Array>
            <mxPoint as="offset" />
          </mxGeometry>
        </mxCell>
        <mxCell id="n8w---uKjapahWrcVd5p-17" value="" style="verticalLabelPosition=bottom;verticalAlign=top;html=1;shape=mxgraph.flowchart.on-page_reference;fillColor=#e1d5e7;strokeColor=#9673a6;" vertex="1" parent="1">
          <mxGeometry x="350" y="200" width="70" height="70" as="geometry" />
        </mxCell>
        <mxCell id="n8w---uKjapahWrcVd5p-18" value="" style="endArrow=none;html=1;rounded=0;entryX=0.957;entryY=0.305;entryDx=0;entryDy=0;entryPerimeter=0;exitX=0.052;exitY=0.303;exitDx=0;exitDy=0;exitPerimeter=0;" edge="1" parent="1" source="n8w---uKjapahWrcVd5p-17" target="n8w---uKjapahWrcVd5p-17">
          <mxGeometry width="50" height="50" relative="1" as="geometry">
            <mxPoint x="350" y="221" as="sourcePoint" />
            <mxPoint x="450" y="270" as="targetPoint" />
          </mxGeometry>
        </mxCell>
        <mxCell id="n8w---uKjapahWrcVd5p-19" value="P2" style="text;html=1;strokeColor=none;fillColor=none;align=center;verticalAlign=middle;whiteSpace=wrap;rounded=0;" vertex="1" parent="1">
          <mxGeometry x="355" y="200" width="60" height="30" as="geometry" />
        </mxCell>
        <mxCell id="n8w---uKjapahWrcVd5p-20" value="VERIFICA SENHA" style="text;html=1;strokeColor=none;fillColor=none;align=center;verticalAlign=middle;whiteSpace=wrap;rounded=0;fontSize=10;" vertex="1" parent="1">
          <mxGeometry x="363.75" y="230" width="42.5" height="20" as="geometry" />
        </mxCell>
        <mxCell id="n8w---uKjapahWrcVd5p-23" value="RESPOSTA" style="endArrow=classic;html=1;rounded=0;entryX=0.709;entryY=0.987;entryDx=0;entryDy=0;entryPerimeter=0;exitX=0.747;exitY=0.082;exitDx=0;exitDy=0;exitPerimeter=0;fontSize=10;horizontal=1;" edge="1" parent="1" source="n8w---uKjapahWrcVd5p-19" target="n8w---uKjapahWrcVd5p-3">
          <mxGeometry x="-0.5275" width="50" height="50" relative="1" as="geometry">
            <mxPoint x="350" y="190" as="sourcePoint" />
            <mxPoint x="400" y="140" as="targetPoint" />
            <mxPoint as="offset" />
          </mxGeometry>
        </mxCell>
        <mxCell id="n8w---uKjapahWrcVd5p-24" value="DADOS" style="endArrow=classic;html=1;rounded=0;exitX=0.145;exitY=0.855;exitDx=0;exitDy=0;exitPerimeter=0;fontSize=9;horizontal=1;entryX=1;entryY=0.75;entryDx=0;entryDy=0;" edge="1" parent="1" source="n8w---uKjapahWrcVd5p-3" target="n8w---uKjapahWrcVd5p-28">
          <mxGeometry x="0.4412" width="50" height="50" relative="1" as="geometry">
            <mxPoint x="350" y="140" as="sourcePoint" />
            <mxPoint x="320" y="190" as="targetPoint" />
            <Array as="points">
              <mxPoint x="360" y="150" />
              <mxPoint x="350" y="150" />
              <mxPoint x="350" y="193" />
            </Array>
            <mxPoint as="offset" />
          </mxGeometry>
        </mxCell>
        <mxCell id="n8w---uKjapahWrcVd5p-25" value="" style="rounded=0;whiteSpace=wrap;html=1;fillColor=#f8cecc;strokeColor=#b85450;" vertex="1" parent="1">
          <mxGeometry x="190" y="175" width="80" height="20" as="geometry" />
        </mxCell>
        <mxCell id="n8w---uKjapahWrcVd5p-26" value="" style="endArrow=none;html=1;rounded=0;entryX=0.25;entryY=0;entryDx=0;entryDy=0;exitX=0.25;exitY=1;exitDx=0;exitDy=0;" edge="1" parent="1" source="n8w---uKjapahWrcVd5p-25" target="n8w---uKjapahWrcVd5p-25">
          <mxGeometry width="50" height="50" relative="1" as="geometry">
            <mxPoint x="180" y="185" as="sourcePoint" />
            <mxPoint x="230" y="135" as="targetPoint" />
          </mxGeometry>
        </mxCell>
        <mxCell id="n8w---uKjapahWrcVd5p-27" value="D1" style="text;html=1;strokeColor=none;fillColor=none;align=center;verticalAlign=middle;whiteSpace=wrap;rounded=0;" vertex="1" parent="1">
          <mxGeometry x="170" y="170" width="60" height="30" as="geometry" />
        </mxCell>
        <mxCell id="n8w---uKjapahWrcVd5p-28" value="Cliente" style="text;html=1;strokeColor=none;fillColor=none;align=center;verticalAlign=middle;whiteSpace=wrap;rounded=0;" vertex="1" parent="1">
          <mxGeometry x="210" y="170" width="60" height="30" as="geometry" />
        </mxCell>
        <mxCell id="n8w---uKjapahWrcVd5p-29" value="RESPOSTA" style="endArrow=classic;html=1;rounded=0;fontSize=8;horizontal=1;" edge="1" parent="1">
          <mxGeometry x="0.3725" width="50" height="50" relative="1" as="geometry">
            <mxPoint x="270" y="175" as="sourcePoint" />
            <mxPoint x="360" y="140" as="targetPoint" />
            <Array as="points">
              <mxPoint x="290" y="175" />
              <mxPoint x="290" y="160" />
              <mxPoint x="290" y="140" />
              <mxPoint x="350" y="140" />
            </Array>
            <mxPoint as="offset" />
          </mxGeometry>
        </mxCell>
        <mxCell id="n8w---uKjapahWrcVd5p-30" value="" style="rounded=0;whiteSpace=wrap;html=1;fillColor=#f8cecc;strokeColor=#b85450;" vertex="1" parent="1">
          <mxGeometry x="250" y="225" width="80" height="20" as="geometry" />
        </mxCell>
        <mxCell id="n8w---uKjapahWrcVd5p-31" value="" style="endArrow=none;html=1;rounded=0;entryX=0.25;entryY=0;entryDx=0;entryDy=0;exitX=0.25;exitY=1;exitDx=0;exitDy=0;" edge="1" parent="1" source="n8w---uKjapahWrcVd5p-30" target="n8w---uKjapahWrcVd5p-30">
          <mxGeometry width="50" height="50" relative="1" as="geometry">
            <mxPoint x="240" y="235" as="sourcePoint" />
            <mxPoint x="290" y="185" as="targetPoint" />
          </mxGeometry>
        </mxCell>
        <mxCell id="n8w---uKjapahWrcVd5p-32" value="D7" style="text;html=1;strokeColor=none;fillColor=none;align=center;verticalAlign=middle;whiteSpace=wrap;rounded=0;" vertex="1" parent="1">
          <mxGeometry x="230" y="220" width="60" height="30" as="geometry" />
        </mxCell>
        <mxCell id="n8w---uKjapahWrcVd5p-33" value="Login" style="text;html=1;strokeColor=none;fillColor=none;align=center;verticalAlign=middle;whiteSpace=wrap;rounded=0;" vertex="1" parent="1">
          <mxGeometry x="270" y="220" width="60" height="30" as="geometry" />
        </mxCell>
        <mxCell id="n8w---uKjapahWrcVd5p-34" value="" style="endArrow=classic;html=1;rounded=0;exitX=0.668;exitY=0.077;exitDx=0;exitDy=0;exitPerimeter=0;entryX=0.083;entryY=0.333;entryDx=0;entryDy=0;entryPerimeter=0;" edge="1" parent="1" source="n8w---uKjapahWrcVd5p-33" target="n8w---uKjapahWrcVd5p-19">
          <mxGeometry width="50" height="50" relative="1" as="geometry">
            <mxPoint x="310" y="220" as="sourcePoint" />
            <mxPoint x="340" y="210" as="targetPoint" />
            <Array as="points">
              <mxPoint x="310" y="210" />
            </Array>
          </mxGeometry>
        </mxCell>
        <mxCell id="n8w---uKjapahWrcVd5p-36" value="" style="endArrow=classic;html=1;rounded=0;exitX=0.993;exitY=0.836;exitDx=0;exitDy=0;entryX=0;entryY=0;entryDx=0;entryDy=0;exitPerimeter=0;" edge="1" parent="1" source="n8w---uKjapahWrcVd5p-28" target="n8w---uKjapahWrcVd5p-33">
          <mxGeometry width="50" height="50" relative="1" as="geometry">
            <mxPoint x="340" y="320" as="sourcePoint" />
            <mxPoint x="390" y="270" as="targetPoint" />
          </mxGeometry>
        </mxCell>
        <mxCell id="n8w---uKjapahWrcVd5p-37" value="Produtos" style="verticalAlign=top;align=left;spacingTop=8;spacingLeft=2;spacingRight=12;shape=cube;size=10;direction=south;fontStyle=4;html=1;whiteSpace=wrap;fillColor=#ffe6cc;strokeColor=#d79b00;fontSize=18;horizontal=1;" vertex="1" parent="1">
          <mxGeometry x="720" y="87" width="90" height="50" as="geometry" />
        </mxCell>
        <mxCell id="n8w---uKjapahWrcVd5p-38" value="" style="verticalLabelPosition=bottom;verticalAlign=top;html=1;shape=mxgraph.flowchart.on-page_reference;fillColor=#e1d5e7;strokeColor=#9673a6;" vertex="1" parent="1">
          <mxGeometry x="580" y="77" width="70" height="70" as="geometry" />
        </mxCell>
        <mxCell id="n8w---uKjapahWrcVd5p-39" value="" style="endArrow=none;html=1;rounded=0;entryX=0.957;entryY=0.305;entryDx=0;entryDy=0;entryPerimeter=0;exitX=0.052;exitY=0.303;exitDx=0;exitDy=0;exitPerimeter=0;" edge="1" parent="1" source="n8w---uKjapahWrcVd5p-38" target="n8w---uKjapahWrcVd5p-38">
          <mxGeometry width="50" height="50" relative="1" as="geometry">
            <mxPoint x="580" y="98" as="sourcePoint" />
            <mxPoint x="680" y="147" as="targetPoint" />
          </mxGeometry>
        </mxCell>
        <mxCell id="n8w---uKjapahWrcVd5p-40" value="P3" style="text;html=1;strokeColor=none;fillColor=none;align=center;verticalAlign=middle;whiteSpace=wrap;rounded=0;" vertex="1" parent="1">
          <mxGeometry x="585" y="77" width="60" height="30" as="geometry" />
        </mxCell>
        <mxCell id="n8w---uKjapahWrcVd5p-41" value="CRUD&lt;br&gt;PROODUTO" style="text;html=1;strokeColor=none;fillColor=none;align=center;verticalAlign=middle;whiteSpace=wrap;rounded=0;fontSize=10;" vertex="1" parent="1">
          <mxGeometry x="593.75" y="107" width="42.5" height="16" as="geometry" />
        </mxCell>
        <mxCell id="n8w---uKjapahWrcVd5p-43" value="RESPOSTA" style="endArrow=classic;html=1;rounded=0;entryX=0.392;entryY=1.001;entryDx=0;entryDy=0;entryPerimeter=0;exitX=1.006;exitY=0.421;exitDx=0;exitDy=0;exitPerimeter=0;fontSize=9;" edge="1" parent="1" source="n8w---uKjapahWrcVd5p-38" target="n8w---uKjapahWrcVd5p-37">
          <mxGeometry x="-0.1486" width="50" height="50" relative="1" as="geometry">
            <mxPoint x="590" y="167" as="sourcePoint" />
            <mxPoint x="640" y="117" as="targetPoint" />
            <mxPoint as="offset" />
          </mxGeometry>
        </mxCell>
        <mxCell id="n8w---uKjapahWrcVd5p-44" value="DADOS" style="endArrow=classic;html=1;rounded=0;exitX=0.781;exitY=0.999;exitDx=0;exitDy=0;exitPerimeter=0;entryX=0.958;entryY=0.706;entryDx=0;entryDy=0;entryPerimeter=0;fontSize=9;" edge="1" parent="1" source="n8w---uKjapahWrcVd5p-37" target="n8w---uKjapahWrcVd5p-38">
          <mxGeometry width="50" height="50" relative="1" as="geometry">
            <mxPoint x="710" y="117" as="sourcePoint" />
            <mxPoint x="650" y="126" as="targetPoint" />
          </mxGeometry>
        </mxCell>
        <mxCell id="n8w---uKjapahWrcVd5p-49" value="" style="rounded=0;whiteSpace=wrap;html=1;fillColor=#f8cecc;strokeColor=#b85450;" vertex="1" parent="1">
          <mxGeometry x="730" y="172" width="80" height="20" as="geometry" />
        </mxCell>
        <mxCell id="n8w---uKjapahWrcVd5p-50" value="" style="endArrow=none;html=1;rounded=0;entryX=0.25;entryY=0;entryDx=0;entryDy=0;exitX=0.25;exitY=1;exitDx=0;exitDy=0;" edge="1" parent="1" source="n8w---uKjapahWrcVd5p-49" target="n8w---uKjapahWrcVd5p-49">
          <mxGeometry width="50" height="50" relative="1" as="geometry">
            <mxPoint x="720" y="182" as="sourcePoint" />
            <mxPoint x="770" y="132" as="targetPoint" />
          </mxGeometry>
        </mxCell>
        <mxCell id="n8w---uKjapahWrcVd5p-51" value="D3" style="text;html=1;strokeColor=none;fillColor=none;align=center;verticalAlign=middle;whiteSpace=wrap;rounded=0;" vertex="1" parent="1">
          <mxGeometry x="710" y="167" width="60" height="30" as="geometry" />
        </mxCell>
        <mxCell id="n8w---uKjapahWrcVd5p-52" value="Produto" style="text;html=1;strokeColor=none;fillColor=none;align=center;verticalAlign=middle;whiteSpace=wrap;rounded=0;" vertex="1" parent="1">
          <mxGeometry x="750" y="167" width="60" height="30" as="geometry" />
        </mxCell>
        <mxCell id="n8w---uKjapahWrcVd5p-54" value="SOLICITAÇÃO" style="endArrow=classic;html=1;rounded=0;exitX=0.855;exitY=0.855;exitDx=0;exitDy=0;exitPerimeter=0;entryX=0;entryY=0;entryDx=0;entryDy=0;fontSize=9;" edge="1" parent="1" source="n8w---uKjapahWrcVd5p-38" target="n8w---uKjapahWrcVd5p-49">
          <mxGeometry x="0.0045" width="50" height="50" relative="1" as="geometry">
            <mxPoint x="720" y="217" as="sourcePoint" />
            <mxPoint x="730" y="167" as="targetPoint" />
            <Array as="points">
              <mxPoint x="640" y="157" />
              <mxPoint x="730" y="157" />
            </Array>
            <mxPoint as="offset" />
          </mxGeometry>
        </mxCell>
        <mxCell id="n8w---uKjapahWrcVd5p-55" value="MENSAGEM SERVIDOR" style="endArrow=classic;html=1;rounded=0;entryX=0.5;entryY=1;entryDx=0;entryDy=0;entryPerimeter=0;exitX=0.333;exitY=0.667;exitDx=0;exitDy=0;exitPerimeter=0;fontSize=9;" edge="1" parent="1" source="n8w---uKjapahWrcVd5p-51" target="n8w---uKjapahWrcVd5p-38">
          <mxGeometry x="-0.226" width="50" height="50" relative="1" as="geometry">
            <mxPoint x="660" y="187" as="sourcePoint" />
            <mxPoint x="710" y="137" as="targetPoint" />
            <Array as="points">
              <mxPoint x="615" y="187" />
            </Array>
            <mxPoint as="offset" />
          </mxGeometry>
        </mxCell>
        <mxCell id="n8w---uKjapahWrcVd5p-57" value="" style="verticalLabelPosition=bottom;verticalAlign=top;html=1;shape=mxgraph.flowchart.on-page_reference;fillColor=#e1d5e7;strokeColor=#9673a6;" vertex="1" parent="1">
          <mxGeometry x="460" y="270" width="70" height="70" as="geometry" />
        </mxCell>
        <mxCell id="n8w---uKjapahWrcVd5p-58" value="" style="endArrow=none;html=1;rounded=0;entryX=0.957;entryY=0.305;entryDx=0;entryDy=0;entryPerimeter=0;exitX=0.052;exitY=0.303;exitDx=0;exitDy=0;exitPerimeter=0;" edge="1" parent="1" source="n8w---uKjapahWrcVd5p-57" target="n8w---uKjapahWrcVd5p-57">
          <mxGeometry width="50" height="50" relative="1" as="geometry">
            <mxPoint x="460" y="291" as="sourcePoint" />
            <mxPoint x="560" y="340" as="targetPoint" />
          </mxGeometry>
        </mxCell>
        <mxCell id="n8w---uKjapahWrcVd5p-59" value="P4" style="text;html=1;strokeColor=none;fillColor=none;align=center;verticalAlign=middle;whiteSpace=wrap;rounded=0;" vertex="1" parent="1">
          <mxGeometry x="465" y="270" width="60" height="30" as="geometry" />
        </mxCell>
        <mxCell id="n8w---uKjapahWrcVd5p-60" value="ESCOLHA&lt;br&gt;PRODUTO" style="text;html=1;strokeColor=none;fillColor=none;align=center;verticalAlign=middle;whiteSpace=wrap;rounded=0;fontSize=10;" vertex="1" parent="1">
          <mxGeometry x="473.75" y="300" width="42.5" height="16" as="geometry" />
        </mxCell>
        <mxCell id="n8w---uKjapahWrcVd5p-61" value="" style="endArrow=classic;html=1;rounded=0;entryX=0.747;entryY=0.076;entryDx=0;entryDy=0;entryPerimeter=0;" edge="1" parent="1" target="n8w---uKjapahWrcVd5p-59">
          <mxGeometry width="50" height="50" relative="1" as="geometry">
            <mxPoint x="750" y="190" as="sourcePoint" />
            <mxPoint x="690" y="220" as="targetPoint" />
            <Array as="points">
              <mxPoint x="750" y="210" />
              <mxPoint x="510" y="210" />
            </Array>
          </mxGeometry>
        </mxCell>
        <mxCell id="n8w---uKjapahWrcVd5p-66" value="Carrinho" style="verticalAlign=top;align=left;spacingTop=8;spacingLeft=2;spacingRight=12;shape=cube;size=10;direction=south;fontStyle=4;html=1;whiteSpace=wrap;fillColor=#ffe6cc;strokeColor=#d79b00;fontSize=18;horizontal=1;" vertex="1" parent="1">
          <mxGeometry x="717" y="353" width="90" height="50" as="geometry" />
        </mxCell>
        <mxCell id="n8w---uKjapahWrcVd5p-69" value="" style="rounded=0;whiteSpace=wrap;html=1;fillColor=#f8cecc;strokeColor=#b85450;" vertex="1" parent="1">
          <mxGeometry x="637" y="318" width="80" height="20" as="geometry" />
        </mxCell>
        <mxCell id="n8w---uKjapahWrcVd5p-70" value="" style="endArrow=none;html=1;rounded=0;entryX=0.25;entryY=0;entryDx=0;entryDy=0;exitX=0.25;exitY=1;exitDx=0;exitDy=0;" edge="1" parent="1" source="n8w---uKjapahWrcVd5p-69" target="n8w---uKjapahWrcVd5p-69">
          <mxGeometry width="50" height="50" relative="1" as="geometry">
            <mxPoint x="627" y="328" as="sourcePoint" />
            <mxPoint x="677" y="278" as="targetPoint" />
          </mxGeometry>
        </mxCell>
        <mxCell id="n8w---uKjapahWrcVd5p-71" value="D4" style="text;html=1;strokeColor=none;fillColor=none;align=center;verticalAlign=middle;whiteSpace=wrap;rounded=0;" vertex="1" parent="1">
          <mxGeometry x="617" y="313" width="60" height="30" as="geometry" />
        </mxCell>
        <mxCell id="n8w---uKjapahWrcVd5p-75" value="RESPOSTA" style="edgeStyle=orthogonalEdgeStyle;rounded=0;orthogonalLoop=1;jettySize=auto;html=1;exitX=1;exitY=0.25;exitDx=0;exitDy=0;entryX=-0.012;entryY=0.303;entryDx=0;entryDy=0;entryPerimeter=0;fontSize=9;" edge="1" parent="1" source="n8w---uKjapahWrcVd5p-72" target="n8w---uKjapahWrcVd5p-66">
          <mxGeometry x="-0.3023" relative="1" as="geometry">
            <mxPoint x="800" y="320.57142857142856" as="targetPoint" />
            <Array as="points">
              <mxPoint x="780" y="321" />
            </Array>
            <mxPoint as="offset" />
          </mxGeometry>
        </mxCell>
        <mxCell id="n8w---uKjapahWrcVd5p-72" value="Carrinho" style="text;html=1;strokeColor=none;fillColor=none;align=center;verticalAlign=middle;whiteSpace=wrap;rounded=0;" vertex="1" parent="1">
          <mxGeometry x="657" y="313" width="60" height="30" as="geometry" />
        </mxCell>
        <mxCell id="n8w---uKjapahWrcVd5p-76" value="DISPONIBILIDADE" style="endArrow=classic;html=1;rounded=0;exitX=0;exitY=0;exitDx=30;exitDy=90;exitPerimeter=0;entryX=0.217;entryY=1;entryDx=0;entryDy=0;entryPerimeter=0;fontSize=9;" edge="1" parent="1" source="n8w---uKjapahWrcVd5p-66" target="n8w---uKjapahWrcVd5p-72">
          <mxGeometry width="50" height="50" relative="1" as="geometry">
            <mxPoint x="672" y="403" as="sourcePoint" />
            <mxPoint x="670" y="343" as="targetPoint" />
            <Array as="points">
              <mxPoint x="670" y="383" />
            </Array>
          </mxGeometry>
        </mxCell>
        <mxCell id="n8w---uKjapahWrcVd5p-78" value="" style="verticalLabelPosition=bottom;verticalAlign=top;html=1;shape=mxgraph.flowchart.on-page_reference;fillColor=#e1d5e7;strokeColor=#9673a6;" vertex="1" parent="1">
          <mxGeometry x="750" y="222" width="70" height="70" as="geometry" />
        </mxCell>
        <mxCell id="n8w---uKjapahWrcVd5p-79" value="" style="endArrow=none;html=1;rounded=0;entryX=0.957;entryY=0.305;entryDx=0;entryDy=0;entryPerimeter=0;exitX=0.052;exitY=0.303;exitDx=0;exitDy=0;exitPerimeter=0;" edge="1" parent="1" source="n8w---uKjapahWrcVd5p-78" target="n8w---uKjapahWrcVd5p-78">
          <mxGeometry width="50" height="50" relative="1" as="geometry">
            <mxPoint x="750" y="243" as="sourcePoint" />
            <mxPoint x="850" y="292" as="targetPoint" />
          </mxGeometry>
        </mxCell>
        <mxCell id="n8w---uKjapahWrcVd5p-80" value="P5" style="text;html=1;strokeColor=none;fillColor=none;align=center;verticalAlign=middle;whiteSpace=wrap;rounded=0;" vertex="1" parent="1">
          <mxGeometry x="755" y="222" width="60" height="30" as="geometry" />
        </mxCell>
        <mxCell id="n8w---uKjapahWrcVd5p-81" value="COMPRA" style="text;html=1;strokeColor=none;fillColor=none;align=center;verticalAlign=middle;whiteSpace=wrap;rounded=0;fontSize=10;" vertex="1" parent="1">
          <mxGeometry x="763.75" y="252" width="42.5" height="16" as="geometry" />
        </mxCell>
        <mxCell id="n8w---uKjapahWrcVd5p-82" value="RET PRODUTO" style="endArrow=classic;html=1;rounded=0;entryX=0.145;entryY=0.855;entryDx=0;entryDy=0;entryPerimeter=0;fontSize=9;" edge="1" parent="1" target="n8w---uKjapahWrcVd5p-78">
          <mxGeometry width="50" height="50" relative="1" as="geometry">
            <mxPoint x="717" y="317" as="sourcePoint" />
            <mxPoint x="670" y="257" as="targetPoint" />
            <Array as="points">
              <mxPoint x="717" y="282" />
            </Array>
          </mxGeometry>
        </mxCell>
        <mxCell id="n8w---uKjapahWrcVd5p-83" value="DISPONIBILIDADE" style="endArrow=classic;html=1;rounded=0;exitX=0;exitY=0.5;exitDx=0;exitDy=0;exitPerimeter=0;entryX=0.506;entryY=0.075;entryDx=0;entryDy=0;entryPerimeter=0;fontSize=9;" edge="1" parent="1" source="n8w---uKjapahWrcVd5p-78" target="n8w---uKjapahWrcVd5p-72">
          <mxGeometry width="50" height="50" relative="1" as="geometry">
            <mxPoint x="687" y="247" as="sourcePoint" />
            <mxPoint x="700" y="247" as="targetPoint" />
            <Array as="points">
              <mxPoint x="687" y="257" />
            </Array>
          </mxGeometry>
        </mxCell>
        <mxCell id="n8w---uKjapahWrcVd5p-84" value="" style="rounded=0;whiteSpace=wrap;html=1;fillColor=#f8cecc;strokeColor=#b85450;" vertex="1" parent="1">
          <mxGeometry x="550" y="227" width="80" height="20" as="geometry" />
        </mxCell>
        <mxCell id="n8w---uKjapahWrcVd5p-85" value="" style="endArrow=none;html=1;rounded=0;entryX=0.25;entryY=0;entryDx=0;entryDy=0;exitX=0.25;exitY=1;exitDx=0;exitDy=0;" edge="1" parent="1" source="n8w---uKjapahWrcVd5p-84" target="n8w---uKjapahWrcVd5p-84">
          <mxGeometry width="50" height="50" relative="1" as="geometry">
            <mxPoint x="540" y="237" as="sourcePoint" />
            <mxPoint x="590" y="187" as="targetPoint" />
          </mxGeometry>
        </mxCell>
        <mxCell id="n8w---uKjapahWrcVd5p-86" value="D8" style="text;html=1;strokeColor=none;fillColor=none;align=center;verticalAlign=middle;whiteSpace=wrap;rounded=0;" vertex="1" parent="1">
          <mxGeometry x="530" y="222" width="60" height="30" as="geometry" />
        </mxCell>
        <mxCell id="n8w---uKjapahWrcVd5p-87" value="Pedido" style="text;html=1;strokeColor=none;fillColor=none;align=center;verticalAlign=middle;whiteSpace=wrap;rounded=0;" vertex="1" parent="1">
          <mxGeometry x="570" y="222" width="60" height="30" as="geometry" />
        </mxCell>
        <mxCell id="n8w---uKjapahWrcVd5p-88" value="" style="endArrow=classic;html=1;rounded=0;exitX=0.989;exitY=0.29;exitDx=0;exitDy=0;exitPerimeter=0;" edge="1" parent="1" source="n8w---uKjapahWrcVd5p-57">
          <mxGeometry width="50" height="50" relative="1" as="geometry">
            <mxPoint x="570" y="310" as="sourcePoint" />
            <mxPoint x="570" y="250" as="targetPoint" />
            <Array as="points">
              <mxPoint x="570" y="290" />
            </Array>
          </mxGeometry>
        </mxCell>
        <mxCell id="n8w---uKjapahWrcVd5p-89" value="SEPARA DO SISTEMA" style="endArrow=classic;html=1;rounded=0;entryX=0.997;entryY=0.196;entryDx=0;entryDy=0;entryPerimeter=0;exitX=0.5;exitY=0;exitDx=0;exitDy=0;fontSize=9;" edge="1" parent="1" source="n8w---uKjapahWrcVd5p-80" target="n8w---uKjapahWrcVd5p-87">
          <mxGeometry width="50" height="50" relative="1" as="geometry">
            <mxPoint x="720" y="227" as="sourcePoint" />
            <mxPoint x="640" y="237" as="targetPoint" />
            <Array as="points">
              <mxPoint x="630" y="222" />
            </Array>
          </mxGeometry>
        </mxCell>
        <mxCell id="n8w---uKjapahWrcVd5p-90" value="SEPARA PEDIDO" style="endArrow=classic;html=1;rounded=0;entryX=0;entryY=0.5;entryDx=0;entryDy=0;exitX=1;exitY=0.5;exitDx=0;exitDy=0;fontSize=9;" edge="1" parent="1" source="n8w---uKjapahWrcVd5p-87" target="n8w---uKjapahWrcVd5p-80">
          <mxGeometry width="50" height="50" relative="1" as="geometry">
            <mxPoint x="640" y="238" as="sourcePoint" />
            <mxPoint x="795" y="232" as="targetPoint" />
            <Array as="points" />
          </mxGeometry>
        </mxCell>
        <mxCell id="n8w---uKjapahWrcVd5p-91" value="ESCOLHE PRODUTO" style="endArrow=classic;html=1;rounded=0;entryX=0.031;entryY=0.311;entryDx=0;entryDy=0;entryPerimeter=0;exitX=0.331;exitY=0.934;exitDx=0;exitDy=0;exitPerimeter=0;" edge="1" parent="1" source="n8w---uKjapahWrcVd5p-28" target="n8w---uKjapahWrcVd5p-57">
          <mxGeometry width="50" height="50" relative="1" as="geometry">
            <mxPoint x="150" y="292" as="sourcePoint" />
            <mxPoint x="310" y="270" as="targetPoint" />
            <Array as="points">
              <mxPoint x="230" y="290" />
            </Array>
          </mxGeometry>
        </mxCell>
        <mxCell id="n8w---uKjapahWrcVd5p-92" value="Funcionário" style="verticalAlign=top;align=left;spacingTop=8;spacingLeft=2;spacingRight=12;shape=cube;size=10;direction=south;fontStyle=4;html=1;whiteSpace=wrap;fillColor=#ffe6cc;strokeColor=#d79b00;fontSize=14;" vertex="1" parent="1">
          <mxGeometry x="275" y="356" width="90" height="50" as="geometry" />
        </mxCell>
        <mxCell id="n8w---uKjapahWrcVd5p-93" value="" style="verticalLabelPosition=bottom;verticalAlign=top;html=1;shape=mxgraph.flowchart.on-page_reference;fillColor=#e1d5e7;strokeColor=#9673a6;" vertex="1" parent="1">
          <mxGeometry x="425" y="341" width="70" height="70" as="geometry" />
        </mxCell>
        <mxCell id="n8w---uKjapahWrcVd5p-94" value="" style="endArrow=none;html=1;rounded=0;entryX=0.957;entryY=0.305;entryDx=0;entryDy=0;entryPerimeter=0;exitX=0.052;exitY=0.303;exitDx=0;exitDy=0;exitPerimeter=0;" edge="1" parent="1" source="n8w---uKjapahWrcVd5p-93" target="n8w---uKjapahWrcVd5p-93">
          <mxGeometry width="50" height="50" relative="1" as="geometry">
            <mxPoint x="425" y="362" as="sourcePoint" />
            <mxPoint x="525" y="411" as="targetPoint" />
          </mxGeometry>
        </mxCell>
        <mxCell id="n8w---uKjapahWrcVd5p-95" value="P6" style="text;html=1;strokeColor=none;fillColor=none;align=center;verticalAlign=middle;whiteSpace=wrap;rounded=0;" vertex="1" parent="1">
          <mxGeometry x="430" y="341" width="60" height="30" as="geometry" />
        </mxCell>
        <mxCell id="n8w---uKjapahWrcVd5p-96" value="CRUD&lt;br&gt;FUNC" style="text;html=1;strokeColor=none;fillColor=none;align=center;verticalAlign=middle;whiteSpace=wrap;rounded=0;fontSize=10;" vertex="1" parent="1">
          <mxGeometry x="438.75" y="371" width="42.5" height="16" as="geometry" />
        </mxCell>
        <mxCell id="n8w---uKjapahWrcVd5p-97" value="DADOS" style="endArrow=classic;html=1;rounded=0;exitX=0.263;exitY=0.002;exitDx=0;exitDy=0;exitPerimeter=0;entryX=-0.003;entryY=0.399;entryDx=0;entryDy=0;entryPerimeter=0;fontSize=9;" edge="1" parent="1" source="n8w---uKjapahWrcVd5p-92" target="n8w---uKjapahWrcVd5p-93">
          <mxGeometry x="0.0064" y="-1" width="50" height="50" relative="1" as="geometry">
            <mxPoint x="355" y="390" as="sourcePoint" />
            <mxPoint x="405" y="340" as="targetPoint" />
            <mxPoint as="offset" />
          </mxGeometry>
        </mxCell>
        <mxCell id="n8w---uKjapahWrcVd5p-98" value="MSG" style="endArrow=classic;html=1;rounded=0;exitX=0.263;exitY=0.002;exitDx=0;exitDy=0;exitPerimeter=0;entryX=-0.003;entryY=0.399;entryDx=0;entryDy=0;entryPerimeter=0;fontSize=9;" edge="1" parent="1">
          <mxGeometry x="0.0064" y="-1" width="50" height="50" relative="1" as="geometry">
            <mxPoint x="425" y="387" as="sourcePoint" />
            <mxPoint x="365" y="387" as="targetPoint" />
            <mxPoint as="offset" />
          </mxGeometry>
        </mxCell>
        <mxCell id="n8w---uKjapahWrcVd5p-99" value="" style="rounded=0;whiteSpace=wrap;html=1;fillColor=#f8cecc;strokeColor=#b85450;" vertex="1" parent="1">
          <mxGeometry x="205" y="455" width="80" height="20" as="geometry" />
        </mxCell>
        <mxCell id="n8w---uKjapahWrcVd5p-100" value="" style="endArrow=none;html=1;rounded=0;entryX=0.25;entryY=0;entryDx=0;entryDy=0;exitX=0.25;exitY=1;exitDx=0;exitDy=0;" edge="1" parent="1" source="n8w---uKjapahWrcVd5p-99" target="n8w---uKjapahWrcVd5p-99">
          <mxGeometry width="50" height="50" relative="1" as="geometry">
            <mxPoint x="195" y="465" as="sourcePoint" />
            <mxPoint x="245" y="415" as="targetPoint" />
          </mxGeometry>
        </mxCell>
        <mxCell id="n8w---uKjapahWrcVd5p-101" value="D2" style="text;html=1;strokeColor=none;fillColor=none;align=center;verticalAlign=middle;whiteSpace=wrap;rounded=0;" vertex="1" parent="1">
          <mxGeometry x="185" y="450" width="60" height="30" as="geometry" />
        </mxCell>
        <mxCell id="n8w---uKjapahWrcVd5p-102" value="Funcionario" style="text;html=1;strokeColor=none;fillColor=none;align=center;verticalAlign=middle;whiteSpace=wrap;rounded=0;fontSize=10;" vertex="1" parent="1">
          <mxGeometry x="227" y="451" width="58" height="28" as="geometry" />
        </mxCell>
        <mxCell id="n8w---uKjapahWrcVd5p-103" value="" style="endArrow=classic;html=1;rounded=0;exitX=0.997;exitY=0.786;exitDx=0;exitDy=0;exitPerimeter=0;entryX=0.66;entryY=0.073;entryDx=0;entryDy=0;entryPerimeter=0;" edge="1" parent="1" source="n8w---uKjapahWrcVd5p-92" target="n8w---uKjapahWrcVd5p-101">
          <mxGeometry width="50" height="50" relative="1" as="geometry">
            <mxPoint x="315" y="480" as="sourcePoint" />
            <mxPoint x="365" y="430" as="targetPoint" />
          </mxGeometry>
        </mxCell>
        <mxCell id="n8w---uKjapahWrcVd5p-104" value="" style="endArrow=classic;html=1;rounded=0;exitX=0.75;exitY=0.063;exitDx=0;exitDy=0;exitPerimeter=0;entryX=1.003;entryY=0.278;entryDx=0;entryDy=0;entryPerimeter=0;" edge="1" parent="1" source="n8w---uKjapahWrcVd5p-102" target="n8w---uKjapahWrcVd5p-92">
          <mxGeometry width="50" height="50" relative="1" as="geometry">
            <mxPoint x="270" y="450" as="sourcePoint" />
            <mxPoint x="234" y="416" as="targetPoint" />
          </mxGeometry>
        </mxCell>
        <mxCell id="n8w---uKjapahWrcVd5p-105" value="" style="verticalLabelPosition=bottom;verticalAlign=top;html=1;shape=mxgraph.flowchart.on-page_reference;fillColor=#e1d5e7;strokeColor=#9673a6;" vertex="1" parent="1">
          <mxGeometry x="470" y="420" width="70" height="70" as="geometry" />
        </mxCell>
        <mxCell id="n8w---uKjapahWrcVd5p-106" value="" style="endArrow=none;html=1;rounded=0;entryX=0.957;entryY=0.305;entryDx=0;entryDy=0;entryPerimeter=0;exitX=0.052;exitY=0.303;exitDx=0;exitDy=0;exitPerimeter=0;" edge="1" parent="1" source="n8w---uKjapahWrcVd5p-105" target="n8w---uKjapahWrcVd5p-105">
          <mxGeometry width="50" height="50" relative="1" as="geometry">
            <mxPoint x="470" y="441" as="sourcePoint" />
            <mxPoint x="570" y="490" as="targetPoint" />
          </mxGeometry>
        </mxCell>
        <mxCell id="n8w---uKjapahWrcVd5p-107" value="P9" style="text;html=1;strokeColor=none;fillColor=none;align=center;verticalAlign=middle;whiteSpace=wrap;rounded=0;" vertex="1" parent="1">
          <mxGeometry x="475" y="420" width="60" height="30" as="geometry" />
        </mxCell>
        <mxCell id="n8w---uKjapahWrcVd5p-108" value="RELATÓRIO&lt;br&gt;CADAST" style="text;html=1;strokeColor=none;fillColor=none;align=center;verticalAlign=middle;whiteSpace=wrap;rounded=0;fontSize=10;" vertex="1" parent="1">
          <mxGeometry x="483.75" y="450" width="42.5" height="16" as="geometry" />
        </mxCell>
        <mxCell id="n8w---uKjapahWrcVd5p-109" value="ENVIA DADOS" style="endArrow=classic;html=1;rounded=0;entryX=0.007;entryY=0.411;entryDx=0;entryDy=0;entryPerimeter=0;exitX=1;exitY=0;exitDx=0;exitDy=0;" edge="1" parent="1" source="n8w---uKjapahWrcVd5p-99" target="n8w---uKjapahWrcVd5p-105">
          <mxGeometry width="50" height="50" relative="1" as="geometry">
            <mxPoint x="285" y="455" as="sourcePoint" />
            <mxPoint x="465" y="440" as="targetPoint" />
            <Array as="points">
              <mxPoint x="285" y="449" />
              <mxPoint x="295" y="449" />
            </Array>
          </mxGeometry>
        </mxCell>
        <mxCell id="n8w---uKjapahWrcVd5p-110" value="ATUALIZA TABELA" style="endArrow=classic;html=1;rounded=0;entryX=1;entryY=0.75;entryDx=0;entryDy=0;exitX=0.032;exitY=0.733;exitDx=0;exitDy=0;exitPerimeter=0;" edge="1" parent="1" source="n8w---uKjapahWrcVd5p-105" target="n8w---uKjapahWrcVd5p-102">
          <mxGeometry width="50" height="50" relative="1" as="geometry">
            <mxPoint x="470" y="475" as="sourcePoint" />
            <mxPoint x="285" y="481" as="targetPoint" />
            <Array as="points" />
          </mxGeometry>
        </mxCell>
        <mxCell id="n8w---uKjapahWrcVd5p-133" style="edgeStyle=orthogonalEdgeStyle;rounded=0;orthogonalLoop=1;jettySize=auto;html=1;exitX=0;exitY=0.25;exitDx=0;exitDy=0;" edge="1" parent="1" source="n8w---uKjapahWrcVd5p-111">
          <mxGeometry relative="1" as="geometry">
            <mxPoint x="148" y="510" as="targetPoint" />
          </mxGeometry>
        </mxCell>
        <mxCell id="n8w---uKjapahWrcVd5p-111" value="" style="rounded=0;whiteSpace=wrap;html=1;fillColor=#f8cecc;strokeColor=#b85450;" vertex="1" parent="1">
          <mxGeometry x="205" y="505" width="80" height="20" as="geometry" />
        </mxCell>
        <mxCell id="n8w---uKjapahWrcVd5p-112" value="" style="endArrow=none;html=1;rounded=0;entryX=0.25;entryY=0;entryDx=0;entryDy=0;exitX=0.25;exitY=1;exitDx=0;exitDy=0;" edge="1" parent="1" source="n8w---uKjapahWrcVd5p-111" target="n8w---uKjapahWrcVd5p-111">
          <mxGeometry width="50" height="50" relative="1" as="geometry">
            <mxPoint x="195" y="515" as="sourcePoint" />
            <mxPoint x="245" y="465" as="targetPoint" />
          </mxGeometry>
        </mxCell>
        <mxCell id="n8w---uKjapahWrcVd5p-113" value="D3" style="text;html=1;strokeColor=none;fillColor=none;align=center;verticalAlign=middle;whiteSpace=wrap;rounded=0;" vertex="1" parent="1">
          <mxGeometry x="185" y="501" width="60" height="30" as="geometry" />
        </mxCell>
        <mxCell id="n8w---uKjapahWrcVd5p-114" value="Produto" style="text;html=1;strokeColor=none;fillColor=none;align=center;verticalAlign=middle;whiteSpace=wrap;rounded=0;fontSize=12;" vertex="1" parent="1">
          <mxGeometry x="227" y="501" width="58" height="28" as="geometry" />
        </mxCell>
        <mxCell id="n8w---uKjapahWrcVd5p-115" value="ENVIA DADOS" style="endArrow=classic;html=1;rounded=0;entryX=0.145;entryY=0.855;entryDx=0;entryDy=0;entryPerimeter=0;" edge="1" parent="1" target="n8w---uKjapahWrcVd5p-105">
          <mxGeometry width="50" height="50" relative="1" as="geometry">
            <mxPoint x="285" y="505" as="sourcePoint" />
            <mxPoint x="425" y="440" as="targetPoint" />
            <Array as="points">
              <mxPoint x="480" y="505" />
            </Array>
          </mxGeometry>
        </mxCell>
        <mxCell id="n8w---uKjapahWrcVd5p-116" value="ATUALIZA TABELA" style="endArrow=classic;html=1;rounded=0;entryX=1;entryY=0.75;entryDx=0;entryDy=0;exitX=0.354;exitY=0.999;exitDx=0;exitDy=0;exitPerimeter=0;" edge="1" parent="1" source="n8w---uKjapahWrcVd5p-105" target="n8w---uKjapahWrcVd5p-114">
          <mxGeometry x="0.1325" width="50" height="50" relative="1" as="geometry">
            <mxPoint x="505" y="522" as="sourcePoint" />
            <mxPoint x="415" y="470" as="targetPoint" />
            <Array as="points">
              <mxPoint x="495" y="522" />
            </Array>
            <mxPoint as="offset" />
          </mxGeometry>
        </mxCell>
        <mxCell id="n8w---uKjapahWrcVd5p-117" value="" style="verticalLabelPosition=bottom;verticalAlign=top;html=1;shape=mxgraph.flowchart.on-page_reference;fillColor=#e1d5e7;strokeColor=#9673a6;" vertex="1" parent="1">
          <mxGeometry x="80" y="276" width="70" height="70" as="geometry" />
        </mxCell>
        <mxCell id="n8w---uKjapahWrcVd5p-118" value="" style="endArrow=none;html=1;rounded=0;entryX=0.957;entryY=0.305;entryDx=0;entryDy=0;entryPerimeter=0;exitX=0.052;exitY=0.303;exitDx=0;exitDy=0;exitPerimeter=0;" edge="1" parent="1" source="n8w---uKjapahWrcVd5p-117" target="n8w---uKjapahWrcVd5p-117">
          <mxGeometry width="50" height="50" relative="1" as="geometry">
            <mxPoint x="80" y="297" as="sourcePoint" />
            <mxPoint x="180" y="346" as="targetPoint" />
          </mxGeometry>
        </mxCell>
        <mxCell id="n8w---uKjapahWrcVd5p-119" value="P7" style="text;html=1;strokeColor=none;fillColor=none;align=center;verticalAlign=middle;whiteSpace=wrap;rounded=0;" vertex="1" parent="1">
          <mxGeometry x="85" y="276" width="60" height="30" as="geometry" />
        </mxCell>
        <mxCell id="n8w---uKjapahWrcVd5p-120" value="SAC" style="text;html=1;strokeColor=none;fillColor=none;align=center;verticalAlign=middle;whiteSpace=wrap;rounded=0;fontSize=17;" vertex="1" parent="1">
          <mxGeometry x="93.75" y="306" width="42.5" height="16" as="geometry" />
        </mxCell>
        <mxCell id="n8w---uKjapahWrcVd5p-121" value="MENSAGEM" style="endArrow=classic;html=1;rounded=0;entryX=0.75;entryY=0;entryDx=0;entryDy=0;exitX=0.801;exitY=1.055;exitDx=0;exitDy=0;exitPerimeter=0;horizontal=0;" edge="1" parent="1" source="n8w---uKjapahWrcVd5p-1" target="n8w---uKjapahWrcVd5p-119">
          <mxGeometry x="0.0903" width="50" height="50" relative="1" as="geometry">
            <mxPoint x="130" y="120" as="sourcePoint" />
            <mxPoint x="350" y="230" as="targetPoint" />
            <Array as="points">
              <mxPoint x="130" y="130" />
            </Array>
            <mxPoint as="offset" />
          </mxGeometry>
        </mxCell>
        <mxCell id="n8w---uKjapahWrcVd5p-122" value="" style="rounded=0;whiteSpace=wrap;html=1;fillColor=#f8cecc;strokeColor=#b85450;" vertex="1" parent="1">
          <mxGeometry x="210" y="316" width="80" height="20" as="geometry" />
        </mxCell>
        <mxCell id="n8w---uKjapahWrcVd5p-123" value="" style="endArrow=none;html=1;rounded=0;entryX=0.25;entryY=0;entryDx=0;entryDy=0;exitX=0.25;exitY=1;exitDx=0;exitDy=0;" edge="1" parent="1" source="n8w---uKjapahWrcVd5p-122" target="n8w---uKjapahWrcVd5p-122">
          <mxGeometry width="50" height="50" relative="1" as="geometry">
            <mxPoint x="200" y="326" as="sourcePoint" />
            <mxPoint x="250" y="276" as="targetPoint" />
          </mxGeometry>
        </mxCell>
        <mxCell id="n8w---uKjapahWrcVd5p-124" value="D5" style="text;html=1;strokeColor=none;fillColor=none;align=center;verticalAlign=middle;whiteSpace=wrap;rounded=0;" vertex="1" parent="1">
          <mxGeometry x="190" y="311" width="60" height="30" as="geometry" />
        </mxCell>
        <mxCell id="n8w---uKjapahWrcVd5p-125" value="SAC" style="text;html=1;strokeColor=none;fillColor=none;align=center;verticalAlign=middle;whiteSpace=wrap;rounded=0;" vertex="1" parent="1">
          <mxGeometry x="230" y="311" width="60" height="30" as="geometry" />
        </mxCell>
        <mxCell id="n8w---uKjapahWrcVd5p-126" value="DADOS" style="endArrow=classic;html=1;rounded=0;entryX=0;entryY=0;entryDx=0;entryDy=0;" edge="1" parent="1" target="n8w---uKjapahWrcVd5p-122">
          <mxGeometry x="-0.2105" width="50" height="50" relative="1" as="geometry">
            <mxPoint x="150" y="300" as="sourcePoint" />
            <mxPoint x="180" y="330" as="targetPoint" />
            <Array as="points">
              <mxPoint x="210" y="300" />
            </Array>
            <mxPoint as="offset" />
          </mxGeometry>
        </mxCell>
        <mxCell id="n8w---uKjapahWrcVd5p-127" value="RESPOSTA" style="endArrow=classic;html=1;rounded=0;entryX=0.855;entryY=0.855;entryDx=0;entryDy=0;entryPerimeter=0;exitX=0;exitY=1;exitDx=0;exitDy=0;fontSize=9;" edge="1" parent="1" source="n8w---uKjapahWrcVd5p-122" target="n8w---uKjapahWrcVd5p-117">
          <mxGeometry x="-0.1447" width="50" height="50" relative="1" as="geometry">
            <mxPoint x="180" y="340" as="sourcePoint" />
            <mxPoint x="280" y="280" as="targetPoint" />
            <mxPoint as="offset" />
          </mxGeometry>
        </mxCell>
        <mxCell id="n8w---uKjapahWrcVd5p-128" value="" style="verticalLabelPosition=bottom;verticalAlign=top;html=1;shape=mxgraph.flowchart.on-page_reference;fillColor=#e1d5e7;strokeColor=#9673a6;" vertex="1" parent="1">
          <mxGeometry x="85" y="455" width="70" height="70" as="geometry" />
        </mxCell>
        <mxCell id="n8w---uKjapahWrcVd5p-129" value="" style="endArrow=none;html=1;rounded=0;entryX=0.957;entryY=0.305;entryDx=0;entryDy=0;entryPerimeter=0;exitX=0.052;exitY=0.303;exitDx=0;exitDy=0;exitPerimeter=0;" edge="1" parent="1" source="n8w---uKjapahWrcVd5p-128" target="n8w---uKjapahWrcVd5p-128">
          <mxGeometry width="50" height="50" relative="1" as="geometry">
            <mxPoint x="85" y="476" as="sourcePoint" />
            <mxPoint x="185" y="525" as="targetPoint" />
          </mxGeometry>
        </mxCell>
        <mxCell id="n8w---uKjapahWrcVd5p-140" style="edgeStyle=orthogonalEdgeStyle;rounded=0;orthogonalLoop=1;jettySize=auto;html=1;exitX=0.33;exitY=0.022;exitDx=0;exitDy=0;entryX=-0.002;entryY=0.878;entryDx=0;entryDy=0;entryPerimeter=0;exitPerimeter=0;" edge="1" parent="1" source="n8w---uKjapahWrcVd5p-130" target="n8w---uKjapahWrcVd5p-138">
          <mxGeometry relative="1" as="geometry" />
        </mxCell>
        <mxCell id="n8w---uKjapahWrcVd5p-130" value="P8" style="text;html=1;strokeColor=none;fillColor=none;align=center;verticalAlign=middle;whiteSpace=wrap;rounded=0;" vertex="1" parent="1">
          <mxGeometry x="90" y="455" width="60" height="30" as="geometry" />
        </mxCell>
        <mxCell id="n8w---uKjapahWrcVd5p-131" value="FEEDBACK" style="text;html=1;strokeColor=none;fillColor=none;align=center;verticalAlign=middle;whiteSpace=wrap;rounded=0;fontSize=12;" vertex="1" parent="1">
          <mxGeometry x="98.75" y="485" width="42.5" height="16" as="geometry" />
        </mxCell>
        <mxCell id="n8w---uKjapahWrcVd5p-135" value="" style="rounded=0;whiteSpace=wrap;html=1;fillColor=#f8cecc;strokeColor=#b85450;" vertex="1" parent="1">
          <mxGeometry x="90" y="408" width="80" height="20" as="geometry" />
        </mxCell>
        <mxCell id="n8w---uKjapahWrcVd5p-136" value="" style="endArrow=none;html=1;rounded=0;entryX=0.25;entryY=0;entryDx=0;entryDy=0;exitX=0.25;exitY=1;exitDx=0;exitDy=0;" edge="1" parent="1" source="n8w---uKjapahWrcVd5p-135" target="n8w---uKjapahWrcVd5p-135">
          <mxGeometry width="50" height="50" relative="1" as="geometry">
            <mxPoint x="80" y="418" as="sourcePoint" />
            <mxPoint x="130" y="368" as="targetPoint" />
          </mxGeometry>
        </mxCell>
        <mxCell id="n8w---uKjapahWrcVd5p-137" value="D6" style="text;html=1;strokeColor=none;fillColor=none;align=center;verticalAlign=middle;whiteSpace=wrap;rounded=0;" vertex="1" parent="1">
          <mxGeometry x="70" y="403" width="60" height="30" as="geometry" />
        </mxCell>
        <mxCell id="n8w---uKjapahWrcVd5p-138" value="FEED" style="text;html=1;strokeColor=none;fillColor=none;align=center;verticalAlign=middle;whiteSpace=wrap;rounded=0;" vertex="1" parent="1">
          <mxGeometry x="110" y="403" width="60" height="30" as="geometry" />
        </mxCell>
        <mxCell id="n8w---uKjapahWrcVd5p-141" value="" style="verticalLabelPosition=bottom;verticalAlign=top;html=1;shape=mxgraph.flowchart.on-page_reference;fillColor=#e1d5e7;strokeColor=#9673a6;" vertex="1" parent="1">
          <mxGeometry x="180" y="358" width="70" height="70" as="geometry" />
        </mxCell>
        <mxCell id="n8w---uKjapahWrcVd5p-142" value="" style="endArrow=none;html=1;rounded=0;entryX=0.957;entryY=0.305;entryDx=0;entryDy=0;entryPerimeter=0;exitX=0.052;exitY=0.303;exitDx=0;exitDy=0;exitPerimeter=0;" edge="1" parent="1" source="n8w---uKjapahWrcVd5p-141" target="n8w---uKjapahWrcVd5p-141">
          <mxGeometry width="50" height="50" relative="1" as="geometry">
            <mxPoint x="180" y="379" as="sourcePoint" />
            <mxPoint x="280" y="428" as="targetPoint" />
          </mxGeometry>
        </mxCell>
        <mxCell id="n8w---uKjapahWrcVd5p-146" style="edgeStyle=orthogonalEdgeStyle;rounded=0;orthogonalLoop=1;jettySize=auto;html=1;exitX=0.25;exitY=0;exitDx=0;exitDy=0;entryX=0;entryY=0.5;entryDx=0;entryDy=0;" edge="1" parent="1" source="n8w---uKjapahWrcVd5p-135" target="n8w---uKjapahWrcVd5p-143">
          <mxGeometry relative="1" as="geometry" />
        </mxCell>
        <mxCell id="n8w---uKjapahWrcVd5p-143" value="P10" style="text;html=1;strokeColor=none;fillColor=none;align=center;verticalAlign=middle;whiteSpace=wrap;rounded=0;" vertex="1" parent="1">
          <mxGeometry x="185" y="358" width="60" height="30" as="geometry" />
        </mxCell>
        <mxCell id="n8w---uKjapahWrcVd5p-144" value="RELAT&lt;br&gt;FEED" style="text;html=1;strokeColor=none;fillColor=none;align=center;verticalAlign=middle;whiteSpace=wrap;rounded=0;fontSize=12;" vertex="1" parent="1">
          <mxGeometry x="193.75" y="388" width="42.5" height="16" as="geometry" />
        </mxCell>
      </root>
    </mxGraphModel>
  </diagram>
</mxfile>
